<svg xmlns="http://www.w3.org/2000/svg" width="1922" height="3686" viewBox="0 0 1922 3686">
  <g fill="none" fill-rule="evenodd" opacity=".71" transform="translate(-1255 -781)">
    <path fill="#D1395D" fill-rule="nonzero" d="M29,884.32 C157.78,1058.03 648.27,1604.73 741.03,1655.49 C778,1675.72 813.43,1693.29 851.68,1708.16 C963.93,1751.76 1019.29,1616.5 1123.1,1718.45 C1256.48,1849.43 1329.04,1673.44 1426.38,1686.84 C1605.49,1711.49 1686.19,1887.14 1775.9,1852.96 C1834.62,1830.59 1619.87,1358.88 1515.96,1307.43 C1204.7,1153.29 1480.13,1078.05 1054.22,991.34 C615.11,901.92 -158.63,631.23 29,884.32 Z"/>
    <g fill="#F2F6F6" fill-rule="nonzero" transform="translate(1359 1727)">
      <path d="M284.26,1883.46 C347.04,1858.48 557.56,1797.28 643.05,1740.34 C774.24,1652.96 718.3,1535.9 788.08,1495.52 C1015.48,1363.92 1017.2,1301.12 1106.94,1193.37 C1198.53,1083.4 1344.51,1075.44 1517.84,905.85 C1582.37,842.71 1449.66,609.71 1559.05,503.9 C1652.55,413.46 1804.92,416.74 1900.89,320.72 C1998.25,223.31 1897.39,470.06 1914.78,398.53 C1978.76,135.31 1734.14,341.71 1802.95,223.56 C1863.24,120.03 1731.98,-55.66 1642.75,18.19 C1501,135.52 1495.83,412.13 1258,602.82 C849.3,930.5 835.52,978.07 728.77,1042.66 C506.29,1177.29 408.63,1152.68 259.01,1320 C142.24,1450.59 11.46,1689.13 1.67,1782.15 C-11.55,1907.72 103.08,1955.57 284.26,1883.46 Z"/>
      <path d="M1586.78,786.26 C1588.05,774.92 1589.86,763.41 1591.4,751.99 C1594.04,732.38 1595.19,707.85 1631.33,688.26 C1648.09,679.17 1667.41,674.03 1681.06,676.22 C1692.97,678.13 1700,684.87 1699.6,694.22 C1702.23,709.5 1695.16,727.99 1680.89,746.82 C1673.73,756.27 1664.49,765.65 1653.86,774.53 C1642.91,783.68 1627.43,795.37 1612.53,799.95 C1591.81,806.31 1585.57,797.1 1586.78,786.26 Z M1649.84,601.71 C1646.31,598.57 1639.04,598.13 1630.57,600.41 C1607.5,606.62 1592.74,625.64 1593.33,637.6 C1593.63,643.73 1597.51,648.98 1606.37,649.69 C1614.26,650.33 1624.99,646.66 1633.13,640.88 C1636.26,638.66 1638.92,636.24 1641.07,633.77 C1650.26,626.03 1657.56,616.22 1657.02,608.56 C1656.72,604.43 1654.31,601.93 1649.84,601.71 Z"/>
    </g>
    <g fill="#0FB2E2" fill-rule="nonzero" opacity="0" transform="translate(1998 1409)">
      <path d="M1744.19,530.38 C1739.35,518.97 1728.63,508.04 1718.03,497.79 C1699.06,479.45 1677.47,461.89 1651.46,446.17 C1627.45,431.66 1596.41,420.6 1565.86,410.9 C1544.21,404.02 1521.99,397.65 1501.24,389.91 C1496.12,387.65 1491.2,385.27 1486.53,382.75 C1482.2,379.28 1477.88,375.82 1473.55,372.35 C1464.09,364.77 1450.56,358.58 1435.08,355.26 C1422.35,346.61 1405.97,339.45 1388.99,333.71 C1360.62,324.11 1328.04,319.65 1297.19,313.39 C1275.05,308.04 1253.85,301.5 1233.82,293.87 C1214.34,285.56 1196.31,276.27 1179.99,266.09 C1179.86,266 1179.73,265.9 1179.59,265.81 C1176.37,257.89 1172.31,250.04 1167.17,242.39 C1153.93,222.68 1137.23,202.9 1108.31,188.05 C1088.58,177.92 1069.45,170.54 1044.47,164.84 C1024.54,160.29 1002.9,158.11 982.01,156.16 C970.17,155.06 958.31,154.15 946.5,152.93 C939.18,151.78 932.02,150.39 925,148.69 C917.3,146.14 909.96,143.27 902.93,140.15 C884.71,130.55 869.02,119.66 854.38,108.4 C838.22,95.48 822.5,82.39 805.25,69.87 C786.2,56.05 764.5,43.83 739.81,32.96 C724.79,26.34 708.31,21.51 691.25,16.77 C678.96,13.36 666.19,10.66 653.07,8.64 C620.02,3.56 586.9,0.78 553.22,0.48 C489.54,-0.1 424.32,3.41 368.33,18.97 C352.82,23.28 338.02,28.57 324.44,34.43 C310.99,40.23 299.81,47.25 288.9,54.46 C281.63,59.26 275.2,64.43 270,70.02 C262.33,78.27 254.83,86.83 251.03,96.03 C246.84,106.17 243.81,116.75 245.42,127.38 C247.22,139.26 250.49,150.59 257.12,162.1 C259.23,165.76 261.5,169.39 263.79,173.02 C262.64,181.94 258.64,190.65 251.77,198.55 C247.49,203.48 242.34,208.23 236.14,212.46 C235.07,213.19 233.92,213.89 232.73,214.57 C220.63,218.14 208.53,221.71 196.43,225.27 C177.17,226 158.02,227 139.66,229.96 C110.01,234.75 81.97,241.46 60.23,253.54 C39.47,265.08 25.22,277.57 14.42,292.87 C5.84,305.04 1.75,318.79 1.05,332.07 C0.6,340.46 2.49,348.91 4.38,357.31 C5.55,362.5 7.47,367.66 10.2,372.73 C25.82,401.69 56.83,428.47 96.57,449.97 C133.17,469.78 174.46,486.53 218.94,500.27 C262.74,513.81 308.18,525.45 355.54,533.9 C403.21,542.41 452.59,548.47 501.73,551.77 C551.13,555.09 600.58,555.11 649.52,553.18 C681.88,551.9 713.9,549.29 745.21,545.35 C747.83,545.45 750.46,545.55 753.08,545.64 C812.67,547.56 871.35,544.63 926.89,535.57 C948.59,535.4 970.33,535.61 992.11,536.75 C1023.93,539.56 1054.48,545.11 1084.85,551.7 C1118.84,559.3 1152.75,566.96 1187.47,573.32 C1221.04,579.47 1255.04,584.71 1289.24,589.3 C1357.51,598.45 1426.5,604.98 1495.5,610.94 C1512.85,612.44 1530.21,613.9 1547.57,615.36 C1569.92,617.24 1592.69,619.53 1615.1,619.33 C1664.9,618.89 1716.37,606.58 1737.98,581.49 C1741.75,577.11 1744.68,572.18 1746.95,567.48 C1747.82,565.68 1748.35,563.86 1748.69,561.99 C1750.85,549.86 1749.3,542.43 1744.19,530.38 Z"/>
      <path d="M1119.59,97.34 C1105.44,83.68 1076.49,78.49 1050.73,80.68 C1045.62,81.11 1040.57,81.71 1035.43,82.09 C1032.72,82.29 1029.98,82.46 1027.22,82.49 C1026.59,82.5 1025.88,82.52 1025.17,82.52 C1024.21,82.4 1022.39,82.21 1021.96,82.15 C1021.61,82.11 1020.53,81.91 1019.63,81.77 C1017.64,81.24 1015.61,80.78 1013.67,80.17 C1013.57,80.14 1013.42,80.09 1013.24,80.04 C1012.64,79.84 1011.77,79.54 1011.41,79.4 C1009.03,78.43 1006.73,77.4 1004.5,76.33 C1000.46,74.38 996.65,72.29 992.95,70.15 C992.02,69.61 991.11,69.07 990.19,68.53 C990.17,68.52 990.14,68.5 990.1,68.48 C989.6,68.18 988.92,67.77 988.68,67.62 C987.56,66.93 986.43,66.24 985.3,65.55 C976.4,60.12 967.33,54.79 956.43,50.56 C932.58,41.3 903.93,37.31 879.02,45.16 C859.6,51.28 849.12,64.02 850.22,76.46 C851.52,91.19 871.56,101.99 893.7,109.36 C916.99,117.12 942.63,123.18 967.75,128.57 C972.94,129.68 978.15,130.75 983.37,131.79 C1010.14,139.64 1038.89,145.23 1068.41,148.09 C1079.36,149.15 1090.95,146.2 1095.21,140.81 C1098.81,140.12 1102.26,139.2 1105.48,138.04 C1117.21,133.81 1124.61,126.95 1127.49,119.36 C1130.35,111.87 1126.66,104.16 1119.59,97.34 Z M1074.39,114.81 C1074.33,114.81 1074.28,114.81 1074.22,114.82 C1073.58,114.76 1072.77,114.71 1072.2,114.68 C1072.04,114.33 1072.8,113.91 1074.69,114.77 C1074.6,114.79 1074.49,114.8 1074.39,114.81 Z M1207.08,173.69 C1204.81,159.06 1172.58,152.09 1153.06,160.48 C1141.46,165.47 1140.03,175.42 1148.64,182.46 C1150.01,183.58 1151.55,184.57 1153.23,185.43 C1154.06,186.28 1155.05,187.09 1156.22,187.82 C1165.9,193.9 1182.95,194.04 1193.66,190.07 C1203.06,186.59 1208.07,180.08 1207.08,173.69 Z"/>
    </g>
    <path fill="#D1395D" fill-rule="nonzero" d="M1473.35,1795.88 C1469.7,1787.02 1462.04,1779.92 1453.26,1775.76 C1440.94,1769.92 1427.15,1769.59 1413.7,1770.24 C1399.9,1770.91 1386.11,1771.74 1372.32,1772.49 C1367.88,1772.73 1363.44,1772.98 1359,1773.29 C1353.71,1772.32 1348.42,1771.36 1343.13,1770.44 C1334.65,1768.96 1326.28,1767.77 1317.7,1769.13 C1308.81,1770.53 1301.15,1775.27 1296.56,1781.94 C1289.45,1786.66 1282.33,1791.38 1275.34,1796.25 C1266.75,1802.24 1258.81,1809.36 1254.98,1819.15 C1251.31,1828.54 1252.15,1839.63 1258.69,1847.63 C1264.85,1855.17 1274.98,1857.95 1284.57,1857.16 C1294.36,1856.35 1302.73,1852.56 1311.9,1849.57 C1317.96,1847.6 1328.39,1844.09 1333.39,1849.85 C1338.21,1855.41 1336.25,1865.59 1336.52,1872.27 C1336.91,1882.2 1339.43,1891.12 1345.58,1899.18 C1357.66,1915.02 1379.02,1920.87 1397.83,1913.57 C1406.82,1910.08 1414.84,1903.57 1419.79,1895.49 C1425.42,1886.3 1424.76,1875.45 1429.53,1866.13 C1433.62,1858.15 1441.82,1852.65 1448.91,1847.34 C1457.05,1841.25 1465.13,1834.67 1470.35,1825.91 C1475.85,1816.66 1477.5,1805.93 1473.35,1795.88 Z"/>
    <g fill="#EAB93F" fill-rule="nonzero" transform="translate(1871)">
      <path d="M17.65,1369.3 C25.35,1328.86 32.59,1293.03 64.63,1233.46 C113.8,1142.04 198.43,1037.35 235.38,991.92 C321.93,885.49 378.4,831.23 366.39,814.53 C355.67,799.62 305.22,835.3 272.35,830.08 C224.67,822.51 261.13,736.38 333.11,653.68 C394.64,582.99 435,568.95 501.15,495.77 C568.26,421.53 561.18,397.86 608.34,306.35 C633.85,256.84 718.94,91.74 812.74,29.59 C894.94,-24.87 972.74,7.07 1005.46,47.08 C1021.41,66.58 1073.53,145.31 881.51,496.95 C717.27,797.72 621.55,845.58 555.77,1028.48 C501.49,1179.4 537.38,1228.23 417.66,1345.78 C324.23,1437.52 175.81,1532.05 90.79,1555.85 C-23.98,1587.98 -4.57,1486.03 17.65,1369.3 Z"/>
      <path d="M305.41,866.68 C306.69,861.21 305.63,856.12 303.09,852.82 C300.63,849.61 296.24,848.83 292.45,850.98 C292.14,851.15 291.85,851.34 291.55,851.54 C291.32,851.58 291.08,851.63 290.85,851.69 L232.08,867.39 C214.25,872.15 196.12,878.08 178.47,879.55 C169.93,880.26 161.71,879.73 153.89,877.13 C146.28,874.6 139.12,870.77 131.4,868.57 C115.78,864.12 98.27,868.49 84.12,886.79 C70.9,903.89 64.18,927.21 65.98,948.33 C67.76,969.18 77.02,985.35 90.5,993.31 C104.38,1001.5 120.73,1002.2 137.39,997.27 C154.5,992.2 171.41,981.45 187.65,970 C207.69,955.87 227.58,941.13 247.52,926.63 C265.5,913.56 283.1,899.59 297.59,878.96 C301.25,876.24 304.15,872.07 305.41,866.68 Z M119.22,1091.21 C119.1,1080.06 119.1,1068.9 118.8,1057.76 C118.53,1047.84 118.62,1036.11 112.02,1028.59 C104.93,1020.51 93.19,1022.66 83.84,1022.65 C73.8,1022.65 63.54,1021.91 53.62,1024.34 C44.76,1026.51 36.81,1032 30.23,1038.93 C23.6,1045.93 18.9,1055.54 19.52,1065.81 C20.09,1075.26 24.61,1084.15 31.55,1089.46 C34.95,1092.06 38.73,1093.59 42.71,1094.85 C43.71,1095.17 44.79,1095.42 45.89,1095.69 C47.55,1097.38 48.71,1099.54 48.73,1101.96 C48.76,1104.61 48.15,1107.38 47.11,1109.92 C44.64,1113.49 41.75,1116.72 38.54,1119.46 C35.05,1121.19 31.13,1121.97 27.48,1123.47 C22.58,1125.48 17.86,1129.18 15.1,1134.2 C12.48,1136.09 10.25,1138.68 8.7,1142.41 C3.81,1154.16 11.34,1166.35 20.37,1171.78 C29.25,1177.12 40.27,1177.19 49.86,1173.69 C59.83,1170.05 68.28,1162.77 76.01,1155.04 C79.13,1151.92 82.1,1148.64 84.93,1145.22 C86.95,1144.06 88.96,1142.9 90.97,1141.72 C99.05,1136.98 108.47,1132.49 114.08,1124.06 C120.52,1114.42 119.34,1102.44 119.22,1091.21 Z"/>
    </g>
    <g fill="#F2F6F6" fill-rule="nonzero" transform="translate(1252 3665)">
      <g transform="translate(43)">
        <path d="M1741,76.07 C1637,-33.3 852.06,71.4 770.91,103.51 C738.56,116.31 708.79,129.18 679.41,144.46 C593.21,189.3 562.01,228.06 540.04,260.76 C464.48,373.21 529.27,367.64 470.97,414.73 C363.7,501.38 136.4,526.64 114.01,585.66 C99.36,624.3 181.14,654.65 269.46,663.85 C360.57,673.34 822.12,204.05 886.01,429.63 C933.01,595.57 1097.8,530.2 1200.01,605 C1343.01,709.66 1779.24,543.3 1749.01,449.43 C1715,343.84 1905.23,248.77 1741,76.07 Z"/>
        <path d="M720.19,43.27 C713.4,22.33 689.88,7.53 664.32,2.97 C633.93,-2.45 601.92,3.74 572.54,10.14 C540.51,17.12 509.41,26.55 479.49,38.07 C421.66,60.34 369.8,91.09 320.37,123.59 C307.72,131.91 295.2,140.35 282.72,148.83 C271.69,156.32 260.27,163.59 250.24,171.97 C240.99,179.69 232.88,188.53 228.68,198.79 C224.42,209.19 226.19,220.02 232.45,229.62 C238.82,239.38 249.32,246.87 256.15,256.39 C262.01,264.56 263.94,274.61 262,283.87 C257.8,303.93 236.44,318.35 211.13,318.84 C208.5,318.89 205.88,318.82 203.28,318.51 C198.58,317.95 194.41,316.77 190.5,319.78 C186.28,323.03 182.82,327.36 180.23,331.53 C174.92,340.1 172.73,349.84 173.31,359.37 C174.5,379.03 186.89,397.69 207.05,408.96 C212.65,412.09 218.64,414.68 224.89,416.75 C230.46,420.74 237.91,423.19 246.04,423.47 C250.29,423.62 254.66,423.4 259.05,422.95 C267.37,423.37 275.75,423.07 283.96,422.1 C313.14,418.63 339.59,407.25 362.37,392.55 C385.74,377.47 406.27,359.59 425.11,340.93 C443.84,322.37 460.79,302.66 476.36,282.32 C506.68,242.7 531.62,200.64 555.21,158.23 C568.76,142.39 583.2,127.19 602.64,115.5 C611.25,110.32 620.81,106.28 631.02,103.73 C637.46,103.33 643.9,102.94 650.28,102.28 C663.85,100.88 676.87,98.24 689.11,93.24 C712.46,83.71 727.03,64.37 720.19,43.27 Z M376.37,261.85 C376.8,261.19 377.24,260.47 377.23,260.24 C377.23,260.24 377.23,260.23 377.24,260.23 C377.49,260.79 376.36,262.2 376.37,261.85 Z M459.93,206.56 C459.95,206.55 459.97,206.53 459.99,206.52 C459.99,206.52 460,206.52 460,206.51 C460.31,206.38 460.62,206.23 460.93,206.05 C462.27,205.49 463.42,205.29 459.93,206.56 Z M580.48,112.45 C578.64,113.83 576.83,115.24 575.05,116.69 C574.82,116.29 574.54,115.9 574.22,115.54 C576.23,114.4 578.32,113.37 580.48,112.45 Z M231.42,449.6 C228.76,445.33 223.59,442.55 217.94,441.77 C217.66,441.6 217.38,441.44 217.09,441.28 C204.3,434.59 189.06,433.16 174.26,431.81 C157.31,430.26 140.36,428.59 123.39,427.18 C108.38,425.93 93.24,427.39 80.9,434.92 C69.36,441.97 61.03,451.78 57.45,463.1 C50.23,485.93 61.05,514.01 83.35,529.48 C93.71,536.67 107.23,541.49 121.16,540.13 C136.5,538.63 149.48,531.3 158.76,521.62 C169.13,510.79 174.74,497.91 183.72,486.42 C187,482.23 191.86,477.74 196.62,475.13 C200.22,473.16 201.21,472.67 204.9,471.78 C205.73,471.58 206.57,471.41 207.41,471.26 C207.6,471.22 207.91,471.19 208.16,471.17 C210.32,471.03 212.43,471.09 214.59,471.28 C216.74,471.47 218.77,470.96 220.53,470.04 C222.02,469.93 223.5,469.52 224.86,468.76 C232.48,464.47 235.69,456.45 231.42,449.6 Z M61.63,386.98 C61.27,384.8 59.91,382.75 57.41,381.79 C45.06,376.99 31.77,372.42 18.08,376.58 C7.02,379.95 -1.51,389.16 1.5,398.92 C4.42,408.38 16.63,414.41 28.36,414.45 C42.56,414.5 53.85,406.65 63.38,399.12 C68.51,395.07 66.19,389.49 61.63,386.98 Z"/>
      </g>
      <path d="M68.01,453.87 C65.88,453.13 63.78,453.15 61.92,453.7 C60.8,453.56 59.65,453.57 58.5,453.76 C35.91,457.52 16.99,470.47 8.22,487.19 C4.56,491.57 1.71,496.36 0.51,501.35 C-2.01,511.83 6.93,522.29 21.17,520.71 C35.69,519.1 41.83,507.47 48.1,498.38 C55.08,488.26 62.06,478.14 69.04,468.02 C69.84,467.22 70.46,466.32 70.88,465.35 C71.43,464.56 71.97,463.77 72.52,462.97 C74.77,459.7 71.99,455.25 68.01,453.87 Z"/>
    </g>
    <g fill="#57C6A4" fill-rule="nonzero" transform="translate(651 1856)">
      <path d="M1085.79,7.55 C1253.89,-26.65 1259.27,75.14 1175.36,141.22 C1145.28,164.91 1104.06,183.31 1090.45,203.3 C1070.46,232.66 1146.17,212.33 1152.91,238.75 C1161.23,271.37 1059.5,356.22 954.8,413.03 C892.62,446.77 872.29,447.34 828.94,475.77 C761.89,519.74 734.38,568.31 753.42,589.13 C772.23,609.7 821.91,587.2 855.06,600.87 C903.76,620.95 867.1,698.62 766.68,769.42 C684.47,827.38 607.87,846.65 542.34,903.07 C514.17,927.32 514.16,935.96 488.26,975.3 C436.93,1053.3 379.61,1082.61 385.49,1104.44 C392.16,1129.22 454.98,1103.99 467.39,1125.2 C486.68,1158.15 363.14,1267.28 265.73,1306.65 C155.58,1351.17 94.79,1300.06 53.08,1264.99 C28.43,1244.27 -10.65,1209.57 4.12,1132.44 C11.55,1093.66 30.79,1053.57 217.9,816.35 C429.15,548.53 481.53,502.14 479.6,439.24 C478.28,396 452.65,389.22 491.46,343.05 C572.71,246.38 890.11,47.35 1085.79,7.55 Z"/>
      <path d="M1210.43,211.15 C1208.67,208.53 1205.2,206.78 1203.72,204.12 C1202.72,202.33 1203.89,199.74 1204.24,197.83 C1204.9,194.22 1205.18,190.47 1204.03,186.92 C1201.76,179.95 1195.05,175.74 1187.81,174.14 C1172.35,170.72 1157.35,180.38 1158.32,195.9 C1159.16,209.28 1169.7,216.58 1181.45,221.29 C1184.36,227.19 1189.11,232.31 1196.32,233.26 C1204.04,234.28 1211.65,229.96 1213.23,222.55 C1214.07,218.64 1212.63,214.44 1210.43,211.15 Z"/>
      <path d="M1021.92,525.22 C1013.94,521.17 1004.79,519.13 996.2,516.55 C986.93,513.76 977.68,510.94 968.4,508.19 C950.4,502.84 932.16,497.97 913.39,495.72 C894.43,493.45 873.31,493.67 857.47,505.14 C844.16,514.79 837.83,533.83 846.7,548 C848.13,550.28 850.66,552.37 853.6,552.6 C854.33,552.8 855.1,552.9 855.9,552.89 C866.17,552.73 876.16,553.79 885.89,556.1 C887.25,556.5 888.61,556.86 889.97,557.14 C895.3,558.6 900.55,560.44 905.73,562.67 C906.52,563.37 907.3,564.09 908.06,564.82 C918.74,575.07 924.88,587 931.81,599.58 C939.05,612.72 949.25,624.11 965.58,626.41 C983.07,628.87 999.83,619.65 1011.07,607.71 C1022.2,595.89 1034.05,580.89 1037.87,565.23 C1041.46,550.34 1037.04,532.89 1021.92,525.22 Z M1055.85,458.01 C1051.16,447.48 1039.83,439.3 1027.72,438.19 C1018.46,437.34 1009.72,439.4 1001.44,442.8 C1000.67,442.73 999.9,442.66 999.13,442.59 C983.76,441.22 963.92,438.07 953.96,452.52 C952.06,455.27 951.06,458.42 951.12,461.49 C950.96,461.99 950.87,462.51 950.86,463.03 L951.1,465.95 C951.12,466.05 951.15,466.16 951.17,466.26 C951.19,466.36 951.32,466.8 951.5,467.34 C951.82,468.45 952.25,469.5 952.77,470.34 C954.21,472.66 955.08,473.72 957.32,475.36 C958.36,476.12 959.57,476.69 960.8,477.12 C962.56,478.43 964.64,479.29 966.96,479.39 C975.08,479.75 983.19,480.12 991.31,480.48 C995.6,482.32 999.91,484.14 1004.24,485.89 C1017.19,491.13 1031.71,494.21 1044.72,487.43 C1055.86,481.62 1060.83,469.17 1055.85,458.01 Z" opacity="0"/>
    </g>
    <g stroke="#FFF" opacity=".15" transform="translate(1225 701)">
      <g fill="#FFF" fill-rule="nonzero" stroke-width=".5" transform="translate(38 92)">
        <ellipse cx="1064.991" cy="24.98" rx="19.02" ry="18.39" transform="rotate(-23.966 1064.991 24.98)"/>
        <ellipse cx="115.66" cy="519.02" rx="15.02" ry="14.51"/>
        <ellipse cx="310.37" cy="788.17" rx="17.52" ry="16.93"/>
        <ellipse cx="300.4" cy="1207.74" rx="28.53" ry="27.57"/>
        <ellipse cx="333.43" cy="1406.13" rx="15.02" ry="14.51"/>
        <ellipse cx="447.61" cy="1207.8" rx="28.53" ry="27.57"/>
        <ellipse cx="116.16" cy="1330.93" rx="19.02" ry="18.38"/>
        <ellipse cx="78.62" cy="1777.42" rx="15.02" ry="14.51"/>
        <ellipse cx="20.06" cy="1596.99" rx="20.02" ry="19.35"/>
        <ellipse cx="206.26" cy="713.26" rx="20.02" ry="19.35"/>
        <ellipse cx="51.09" cy="823" rx="15.02" ry="14.51"/>
        <ellipse cx="877.69" cy="230.612" rx="15.01" ry="14.51" transform="rotate(-23.966 877.69 230.612)"/>
        <ellipse cx="1105.277" cy="201.477" rx="15.01" ry="14.51" transform="rotate(-23.966 1105.277 201.477)"/>
        <ellipse cx="731.267" cy="144.814" rx="13.01" ry="12.58" transform="rotate(-23.966 731.267 144.814)"/>
        <ellipse cx="921.438" cy="565.203" rx="28.52" ry="27.58" transform="rotate(-23.966 921.438 565.203)"/>
        <ellipse cx="770.622" cy="574.005" rx="28.02" ry="27.58" transform="rotate(-23.222 770.622 574.005)"/>
        <ellipse cx="132.68" cy="1034.44" rx="15.02" ry="14.51"/>
        <ellipse cx="1215.59" cy="23.755" rx="15.01" ry="14.51" transform="rotate(-23.966 1215.59 23.755)"/>
      </g>
      <g stroke-width="6">
        <path fill="#FFF" fill-rule="nonzero" d="M1143.5,293 L959.5,657"/>
        <path d="M1253.5,116 L915.58,323 M1253.5,116 L1143.5,293 M1102.5,117 L1143.5,293 M1102.5,117 L769.5,237 M485.5,1300 L371.5,1498 M371.5,1498 L154.16,1422.93 M371.5,1498 L58.06,1688.99 M338.5,1300 L371.5,1498 M118.12,1870.87 L58.06,1688.99 M170.68,1124 L154.16,1422.93 M244.76,805 L89.09,915 M89.09,915 L6.51,824.54 M153.66,611 L7.01,547.36 M244.76,805 L153.66,611 M609.64,956.6 L348.37,880.17 M609.64,956.6 L244.76,805 M1281.5,0 L1253.5,116 M915.5,323 L808.35,665 M154.16,1422.93 L0,1567.08 M959.5,657 L915.5,323 M348.37,880.17 L170.68,1124 M89.09,915 L170.68,1124"/>
      </g>
    </g>
  </g>
</svg>
